<svg width="32" height="32" fill="none" xmlns="http://www.w3.org/2000/svg"><rect y="3" width="32" height="26" rx="3" fill="#C8BFFF"/><path d="M21.976 14.183c-2.36-1.56-2.69-3.827-5.195-5.056-2.502-1.226-7.036-2.548-8.784 2.93-1.272 3.983-.86 5.62-.86 5.62s3.556 8.137 8.654 5.149c.047-1.465.378-1.653 1.37-1.653.99 0 6.046-.143 7.082-3.496 1.04-3.354.096-1.937-2.267-3.494z" fill="#A68159"/><path d="M19.237 13.969a1.016 1.016 0 1 1-2.032 0 1.016 1.016 0 0 1 2.032 0zm-9.114-2.198c.49-.7 2.402-1.461 3.21-1.18 1.845.645 3.59 5.906 3.59 6.944 0 1.04.282 6.47-2.645 6.425-2.928-.05-5.18-3.214-5.573-5.054-.378-1.778.376-5.645 1.418-7.134zm14.786 4.072a.463.463 0 0 0-.217-.367c-.391-.242-1.24-.708-1.463-.36-.28.437-.5 2.002.815 2.825.109.068.25.03.32-.079.503-.786.608-1.007.545-2.02z" fill="#3E2D23"/></svg>