<svg width="32" height="32" fill="none" xmlns="http://www.w3.org/2000/svg"><path d="M20.284 3.777c1.6-.43 3.245.52 3.674 2.12l3.107 11.593a2.994 2.994 0 0 1-2.116 3.672L8.327 25.614a2.998 2.998 0 0 1-3.673-2.121L1.55 11.903a3 3 0 0 1 2.12-3.674l16.614-4.452z" fill="#F6F6F6"/><rect x="3.04" y="10.257" width="19.468" height="14.406" rx="1.5" transform="rotate(-15 3.04 10.257)" fill="#4681A0"/><path d="M28 10c1.657 0 3 1.342 3 2.998v12.003c0 1.657-1.337 3-2.994 3l-17.208-.002a2.998 2.998 0 0 1-2.998-3V13a3 3 0 0 1 3-3H28z" fill="#F6F6F6"/><rect x="10" y="12" width="19" height="14" rx="1.5" fill="#88E2FF"/><mask id="a" maskUnits="userSpaceOnUse" x="9" y="12" width="20" height="14"><rect x="10" y="12" width="19" height="14" rx="1.5" fill="#88E2FF"/></mask><g mask="url(#a)"><path d="M10.998 21.991c-.556 0-1.092.047-1.607.125v4.279h7.92a2.32 2.32 0 0 0 .088-.601c0-2.1-2.866-3.803-6.402-3.803z" fill="#4D7B28"/><path d="M29.39 26.394V20.49a16.213 16.213 0 0 0-4.027-.495c-5.76 0-10.43 2.866-10.43 6.4h14.456z" fill="#62A42F"/><circle cx="9.401" cy="11.6" r="5.6" fill="#FED500"/></g></svg>