<svg width="32" height="32" fill="none" xmlns="http://www.w3.org/2000/svg"><path d="M32 12h-2l-4 2v8l4 2h2V12z" fill="#F0F1F1"/><path d="M28 6a2 2 0 0 1-2 2h-6V4h6a2 2 0 0 1 2 2z" fill="#3E3E3F"/><path d="M17.5 26h-11v2h11v-2z" fill="#F0F1F1"/><path d="M4.211 8.105A.998.998 0 0 0 3.764 8H1a1 1 0 0 0-1 1v16a1 1 0 0 0 1 1h20a1 1 0 0 0 1-1v-3h4v-8h-4v-3a1 1 0 0 0-1-1H9.535l2-3H20V5h-9.535L7.349 9.675" fill="#27292D"/><path d="M18 14.5a1 1 0 1 0 0-2 1 1 0 0 0 0 2z" fill="#F79392"/><path d="M26 4h-6v2h8a2 2 0 0 0-2-2z" fill="#5B5C5F"/><path d="M26 14v4h6v-6h-2l-4 2z" fill="#fff"/><path d="M19 21.5h-9V23h9v-1.5z" fill="#818284"/></svg>